<svg width="125" height="103" viewBox="0 0 125 103" fill="none" xmlns="http://www.w3.org/2000/svg">
<path d="M79.7054 29.8784L82.8724 22.5174C83.1796 21.8033 82.5854 20.9364 81.8082 20.927C77.9411 20.8805 68.7071 20.5765 56.8243 22.1799C47.0158 23.5033 41.9907 28.7879 38.9785 32.6139C37.967 33.8988 37.1566 35.3292 36.5103 36.8313L24.1043 65.6668C15.2527 64.2951 8.48992 66.5633 4.07306 72.5819C0.539565 77.3967 3.00716 81.6666 4.68265 83.1996C10.3859 86.8365 16.2156 84.343 20.3249 81.0041C23.5201 78.408 25.3767 74.6131 26.9436 70.806C30.4617 62.2577 35.5236 50.2583 38.3141 44.6734C40.8772 39.5439 43.9585 36.9147 47.2676 35.4719C49.6613 34.4282 52.3124 34.2196 54.9195 34.0699L75.399 32.8941C77.2898 32.7856 78.9569 31.6181 79.7054 29.8784Z" fill="#E7ECEF" stroke="#E7ECEF"/>
<path d="M47.1993 53.7541L50.3244 46.4903C53.3066 41.5359 65.6293 42.2716 73.1665 42.1286C73.9048 42.1146 74.4238 42.8626 74.1331 43.5413C69.7634 53.7434 62.2877 71.5874 61.0497 73.9477C59.3553 77.1781 50.7487 84.4399 44.5418 83.2923C38.3349 82.1447 36.0309 74.7574 40.9617 68.96C44.9064 64.322 55.1008 63.4694 59.7049 63.6228L63.0512 55.845C63.3438 55.165 62.8219 54.414 62.0826 54.451L48.1679 55.148C47.4286 55.1851 46.9068 54.434 47.1993 53.7541Z" fill="#E7ECEF" stroke="#E7ECEF"/>
<path d="M120.005 30.9429L124.239 22.6139C124.583 21.9384 124.08 21.1397 123.322 21.1516C115.173 21.2793 100.723 21.0279 93.4883 21.0868C92.2451 21.0969 91.1519 21.891 90.7358 23.0625L80.6243 51.5293C80.1618 52.8312 81.1275 54.1945 82.5091 54.1829C91.5645 54.1063 98.6343 54.0511 97.0223 61.7527C94.8481 72.1407 85.1643 72.9331 79.3185 69.8939C78.055 69.237 76.3189 69.6482 75.8096 70.978L72.6207 79.3046C72.2019 80.3983 72.8113 81.6202 73.946 81.9101C97.8614 88.0211 112.146 77.7317 113.249 60.0741C114.056 47.1729 103.378 45.3745 94.9657 44.0127C94.4069 43.9223 94.0366 43.386 94.1832 42.8393C95.1071 39.3926 97.4328 34.3345 98.701 34.3345H108.213C110.985 34.3345 113.598 34.6257 115.563 34.5792C117.668 34.5293 119.051 32.8192 120.005 30.9429Z" fill="#E7ECEF" stroke="#E7ECEF"/>
</svg>
